<?xml version="1.0" encoding="UTF-8"?><svg id="a" xmlns="http://www.w3.org/2000/svg" viewBox="0 0 172.6 76.18"><defs><style>.b{fill:#fff;}.c{fill:#bc7014;}.d{fill:#db9013;}.e{fill:#232639;}</style></defs><polygon class="c" points="35.67 59.71 44.75 59.71 55.9 76.18 25.25 63.63 35.67 59.71"/><polygon class="d" points="172.6 56.67 168.72 66.02 146.4 53.97 172.6 56.67"/><polygon class="e" points="155.72 63.74 153.58 67.94 145.8 56.77 155.72 63.74"/><polygon class="d" points="0 32.76 3.93 24.43 18.67 38.61 0 32.76"/><polygon class="e" points="8.37 45.56 7.6 40.81 18.15 42.61 8.37 45.56"/><polygon class="d" points="22.9 33.89 140.05 22.84 142.39 52.59 25.24 63.63 22.9 33.89"/><polygon class="e" points="20.25 7.04 90.07 0 92.79 29.38 22.98 36.39 20.25 7.04"/><path class="b" d="m36.85,27.96c-.26,1.86-1.84,3.17-3.13,3.81l-1.54-1.41c.73-.54,1.36-1.34,1.56-1.96.19-.56.19-1.16.04-2.77l-1.16-12.3,3.04-.29,1.13,11.98c.18,1.92.15,2.32.06,2.93Z"/><path class="b" d="m40.27,27.61l-1.41-14.87,8.47-.8-.15,2.47-5.09.48.33,3.44,4.26-.4.23,2.44-4.21.4.38,3.98,5.62-.53.24,2.57-8.66.82Z"/><path class="b" d="m58.83,13.36l-3.55.34,1.17,12.38-3.04.29-1.17-12.38-3.64.34-.23-2.48,10.72-1.01-.26,2.53Z"/><path class="b" d="m70.21,24.78l-9.28.88-.2-2.1,4.62-9.57c.34-.72.79-1.43.79-1.43,0,0-.61.17-1.51.25l-4.58.43.43-2.54,8.9-.84.21,2.16-4.64,9.83c-.27.57-.67,1.12-.67,1.12,0,0,.87-.17,1.47-.22l5-.47-.54,2.51Z"/><path class="b" d="m81.09,11.25l-3.55.34,1.17,12.38-3.04.29-1.17-12.38-3.64.34-.23-2.48,10.72-1.01-.26,2.53Z"/><path class="b" d="m40.5,54.38c-.47.07-1.09.15-1.9.22l-4.68.44-1.41-14.87,5.03-.48c1.82-.17,2.79.02,3.76.72.9.65,1.37,1.47,1.47,2.54.1,1-.17,1.89-.77,2.58-.39.45-.63.62-1.3.9,1.89.36,3.12,1.52,3.31,3.46.19,2.05-.91,4.1-3.5,4.47Zm-1.81-12.02c-.27-.08-.6-.14-1.26-.08l-1.73.16.32,3.4,1.77-.17c.71-.07,1.02-.16,1.27-.32.39-.25.68-.99.63-1.59-.06-.62-.44-1.25-1-1.42Zm.63,5.79c-.37-.07-.61-.07-1.17-.02l-1.86.18.38,4.02,1.95-.18c.62-.06,1.06-.19,1.36-.47.42-.38.67-1.1.61-1.8-.08-.86-.58-1.58-1.26-1.71Z"/><path class="b" d="m46.96,53.81l-1.41-14.87,8.47-.8-.15,2.47-5.09.48.33,3.44,4.26-.4.23,2.44-4.21.4.38,3.98,5.63-.53.24,2.57-8.66.82Z"/><path class="b" d="m70.48,51.71l-3.27.31-1.9-5.93c-.6-1.82-1.01-3.64-1.11-4.17-.01.35-.09,2.25-.31,4.26l-.66,6.21-3.4.32-4.97-14.66,3.17-.3,1.84,5.74c.86,2.72,1.26,4.82,1.26,4.82,0-.58.07-2.73.32-4.82l.76-6.13,3.27-.31,2,6.52c.41,1.36,1.01,3.88,1.01,3.88,0-.47.16-3.53.34-5.02l.68-5.76,3.14-.3-2.17,15.33Z"/><path class="b" d="m75.76,51.08l-1.41-14.87,8.47-.8-.15,2.47-5.09.48.33,3.44,4.26-.4.23,2.44-4.21.4.38,3.98,5.63-.53.24,2.57-8.66.82Z"/><path class="b" d="m93.82,49.37c-.67-.93-.95-1.31-1.62-2.31-1.73-2.53-2.25-3.22-2.8-3.4-.16-.05-.29-.08-.48-.08l.59,6.2-2.93.28-1.41-14.87,5.54-.52c2.63-.25,4.53,1.34,4.78,3.95.21,2.22-1.09,4.2-2.93,4.42.32.21.46.32.68.56.96.99,4.12,5.44,4.12,5.44l-3.53.33Zm-2.72-12.11c-.35-.1-.98-.12-1.71-.05l-1.07.1.38,4.02,1-.09c1.28-.12,1.83-.3,2.2-.7.33-.38.49-.93.44-1.55-.09-.92-.51-1.53-1.24-1.72Z"/><path class="b" d="m105.85,48.19c-.47.07-1.09.15-1.9.22l-4.68.44-1.41-14.87,5.03-.48c1.82-.17,2.79.02,3.76.72.9.65,1.37,1.47,1.47,2.54.1,1-.17,1.89-.77,2.58-.39.45-.63.62-1.3.9,1.89.36,3.12,1.52,3.31,3.46.19,2.05-.91,4.1-3.5,4.47Zm-1.81-12.02c-.27-.08-.6-.14-1.26-.08l-1.73.16.32,3.4,1.77-.17c.71-.07,1.02-.16,1.27-.32.39-.25.68-.99.63-1.59-.06-.62-.44-1.25-1-1.42Zm.63,5.79c-.37-.07-.61-.07-1.17-.02l-1.86.18.38,4.02,1.95-.18c.62-.06,1.06-.19,1.36-.47.42-.38.67-1.1.61-1.8-.08-.86-.58-1.58-1.26-1.71Z"/><path class="b" d="m112.31,47.62l-1.41-14.87,8.47-.8-.15,2.47-5.09.48.33,3.44,4.26-.4.23,2.44-4.21.4.38,3.98,5.62-.53.24,2.57-8.66.82Z"/><path class="b" d="m130.32,45.92l-3.08-5.45c-1.01-1.78-2.11-3.79-2.47-4.69.22,1.21.41,2.96.55,4.2l.69,6.34-2.89.27-1.41-14.87,3.32-.31,3.41,5.68c.9,1.51,1.62,3.02,2.02,4.06-.22-1.14-.5-3.04-.62-4.06l-.64-6.07,2.84-.27,1.41,14.87-3.12.3Z"/></svg>