<?xml version="1.0" encoding="UTF-8"?><svg id="a" xmlns="http://www.w3.org/2000/svg" viewBox="0 0 279.91 73.48"><defs><style>.b{fill:#008d3f;}.c{fill:#f39200;}</style></defs><path class="c" d="m212.83,30.38h-11.46l-6,17.09c-.79,2.18-1.58,4.85-2.24,8.24h-.06c-.67-3.76-1.21-5.33-2-7.94l-5.33-17.4h-11.94l14.37,42.25h9.76l14.91-42.25h0Zm26.24,25.82c0-11.21-6.61-15.64-14.31-15.64-9.15,0-15.09,6.79-15.09,16.55,0,10.37,5.52,16.31,14.49,16.31,7.46,0,14.91-4.85,14.91-17.22h0Zm-11.4-.3c0,7.46-.79,10.12-3.27,10.12-2.97,0-3.33-2.67-3.33-8.73,0-7.76,1.09-9.4,3.27-9.4,2.49,0,3.33,1.76,3.33,8h0Zm30.59,16.55l-1.7-6.55c-.36.12-.73.18-1.09.18-2.36,0-2.55-1.45-2.55-6.97v-23.22c0-3.21-.18-5.94-.49-7.82l-10.43,1.76c.42,2.42.36,7.27.36,11.4v21.34c0,6.24.18,10.85,9.09,10.85,2.91,0,5.39-.42,6.79-.97h0Zm21.65-.79l-1.27-6.06c-.67.36-1.7.61-2.67.61-2.67,0-3.27-.97-3.27-5.33v-12.61h4.36l1.39-6.91h-5.76c0-2.91-.06-6,.3-9.34l-10.49,1.58c-.3,2.06-.36,4.67-.36,7.76h-2.55v6.91h2.55v17.64c0,6.06,3.94,7.58,9.82,7.58,2.61,0,5.27-.55,7.94-1.82h0Z"/><path class="b" d="m125.32,72.63v-22.79c0-7.82-4.12-9.27-8.49-9.27-3.64,0-6.49,1.15-8.97,3.39-1.64-2-3.7-3.39-7.03-3.39-2.67,0-5.4,1.15-7.58,3.09-.06-1.15-.3-1.94-.61-3.03l-9.7,1.64c.79,3.33.97,6.73.97,10.49v19.88h10.24v-22.73c.85-.67,2.42-1.21,3.39-1.21,2,0,2.12.42,2.12,4.55v19.4h9.88v-22.55c1.09-.67,2.73-1.21,3.39-1.21,1.82,0,2.24.24,2.24,4.43v19.34h10.12Zm32.57-16.43c0-10.49-5.03-15.64-12.31-15.64-2.73,0-4.61.97-5.52,1.76.18-.49.24-2.24.24-3.46v-4.79c0-2.12-.36-4.49-.67-6l-10.67,1.82c.67,2.73.79,4.91.79,8.67v28.07c0,2.73-.12,4.67-.73,6h9.03c.3-.49.55-1.33.61-1.94,1.27,1.52,3.39,2.73,6.18,2.73,2.55,0,4.67-.61,6.97-2.42,4.12-3.21,6.06-8.49,6.06-14.79h0Zm-11.28.55c0,5.82-1.03,7.94-3.7,7.94-1.33,0-2.06-.55-2.61-1.03v-13.09c.42-.55,1.15-1.52,2.73-1.52,2.36,0,3.58,1.52,3.58,7.7h0Zm25.86,15.88v-31.76l-10.55.97v30.79h10.55Z"/><path class="b" d="m42.28,72.64h11.46l6-17.09c.79-2.18,1.58-4.85,2.24-8.24h.06c.67,3.76,1.21,5.33,2,7.94l5.33,17.4h11.94l-14.37-42.25h-9.76l-14.91,42.25h0Z"/><path class="b" d="m42.25,21.13c0,11.67-9.46,21.13-21.13,21.13S0,32.79,0,21.13,9.46,0,21.13,0s21.13,9.46,21.13,21.13h0Zm-4.12,0c0-9.39-7.61-17.01-17.01-17.01S4.12,11.73,4.12,21.13s7.61,17.01,17.01,17.01,17.01-7.61,17.01-17.01h0Z"/><path class="c" d="m21.13,33.88c7.04,0,12.76-5.71,12.76-12.76s-5.71-12.76-12.76-12.76-12.76,5.71-12.76,12.76,5.71,12.76,12.76,12.76h0Z"/></svg>