<svg xmlns="http://www.w3.org/2000/svg" viewBox="0 0 42.26 42.26">
  <rect width="42.26" height="42.26" fill="#ffffff"/>
  <path fill="#008d3f" d="m42.25,21.13c0,11.67-9.46,21.13-21.13,21.13S0,32.79,0,21.13,9.46,0,21.13,0s21.13,9.46,21.13,21.13h0Zm-4.12,0c0-9.39-7.61-17.01-17.01-17.01S4.12,11.73,4.12,21.13s7.61,17.01,17.01,17.01,17.01-7.61,17.01-17.01h0Z"/>
  <path fill="#f39200" d="m21.13,33.88c7.04,0,12.76-5.71,12.76-12.76s-5.71-12.76-12.76-12.76-12.76,5.71-12.76,12.76,5.71,12.76,12.76,12.76h0Z"/>
</svg>
